<?xml version="1.0" encoding="utf-8"?>
<!-- Generator: Adobe Illustrator 24.0.3, SVG Export Plug-In . SVG Version: 6.00 Build 0)  -->
<svg version="1.1" id="Layer_1" xmlns="http://www.w3.org/2000/svg" xmlns:xlink="http://www.w3.org/1999/xlink" x="0px" y="0px"
	 viewBox="0 0 1960 594" style="enable-background:new 0 0 1960 594;" xml:space="preserve">
<style type="text/css">
	.st0{fill:#FFFFFF;}
	.st1{fill:#505F79;}
	.st2{fill:#F16034;}
	.st3{fill:#DFE1E5;}
</style>
<g>
	<g>
		<path class="st0" d="M1192.6,573.7L1192.6,573.7c-22.6-0.1-40.8-18.4-40.8-40.9l1.1-470.7c0.1-22.5,18.3-40.7,40.8-40.7h0.1
			c22.5,0.1,40.8,18.4,40.7,40.9l-1.1,470.7C1233.4,555.5,1215.1,573.7,1192.6,573.7z"/>
	</g>
	<g>
		<path class="st0" d="M1192.6,573.7c-10.7,0-21.3-4.2-29.3-12.4L707.5,90.6c-15.7-16.2-15.3-42,0.9-57.7s42-15.3,57.7,0.9
			l455.8,470.7c15.7,16.2,15.3,42-0.9,57.7C1213.1,569.9,1202.9,573.7,1192.6,573.7z"/>
	</g>
	<g>
		<path class="st0" d="M735.7,573.7C735.7,573.7,735.7,573.7,735.7,573.7c-22.6-0.1-40.8-18.4-40.8-40.9L696,62.2
			c0.1-22.5,18.3-40.7,40.8-40.7c0,0,0.1,0,0.1,0c22.5,0.1,40.8,18.4,40.7,40.9L776.5,533C776.5,555.5,758.2,573.7,735.7,573.7z"/>
	</g>
	<g>
		<path class="st0" d="M311.8,578.7C156.4,578.7,30,452.2,30,296.8C30,141.4,156.4,15,311.8,15c155.4,0,281.8,126.4,281.8,281.8
			C593.7,452.2,467.2,578.7,311.8,578.7z M311.8,96.6c-110.4,0-200.3,89.8-200.3,200.3s89.8,200.3,200.3,200.3
			s200.3-89.8,200.3-200.3S422.3,96.6,311.8,96.6z"/>
	</g>
	<g>
		<path class="st0" d="M1890.9,573.1c-9.7,0-19.4-3.6-26.9-10.8L1365.3,88c-15.6-14.9-16.3-39.6-1.4-55.2
			c14.9-15.6,39.6-16.2,55.2-1.4l498.7,474.3c15.6,14.9,16.3,39.6,1.4,55.2C1911.6,569,1901.3,573.1,1890.9,573.1z"/>
	</g>
	<g>
		<path class="st0" d="M1392.3,573.1c-21.6,0-39.1-17.5-39.1-39.1V59.7c0-21.6,17.5-39.1,39.1-39.1s39.1,17.5,39.1,39.1V534
			C1431.3,555.6,1413.8,573.1,1392.3,573.1z"/>
	</g>
</g>
</svg>
